<svg viewBox="0 0 800 600" xmlns="http://www.w3.org/2000/svg">
  <!-- Stylized outline of Volta Redonda with emphasis on the river curve -->
  <path d="M400,100 C450,110 500,150 550,180 C600,210 650,200 700,220 C750,240 780,300 750,380 C720,460 650,520 550,550 C450,580 350,580 250,550 C150,520 80,460 50,380 C20,300 50,240 100,220 C150,200 200,210 250,180 C300,150 350,110 400,100 Z" 
        fill="none" stroke="currentColor" stroke-width="2" stroke-dasharray="8,4" opacity="0.3" />
  
  <!-- Stylized Rio Paraíba do Sul (The famous "U" curve) -->
  <path d="M150,300 C200,320 300,350 400,350 C500,350 600,320 650,300 L650,250 C600,270 500,300 400,300 C300,300 200,270 150,250 Z" 
        fill="currentColor" opacity="0.1" />
  
  <!-- Circuit Nodes (Tech integration) -->
  <circle cx="400" cy="100" r="4" fill="currentColor" />
  <circle cx="750" cy="380" r="4" fill="currentColor" />
  <circle cx="50" cy="380" r="4" fill="currentColor" />
  <circle cx="400" cy="565" r="4" fill="currentColor" />
</svg>
